<?xml version="1.0"?>
<svg width="300" height="300" xmlns="http://www.w3.org/2000/svg" xmlns:svg="http://www.w3.org/2000/svg" enable-background="new 0 0 256 256" version="1.1" xml:space="preserve">
 <style type="text/css">.st0{fill:#4F5D73;}
	.st1{opacity:0.2;}
	.st2{fill:#231F20;}
	.st3{fill:#FFFFFF;}</style>

 <g class="layer">
  <title>Layer 1</title>
  <g id="Layer_1">
   <g id="svg_1">
    <circle class="st0" cx="150" cy="150" id="svg_2" r="148.5"/>
   </g>
   <g class="st1" id="svg_3">
    <g id="svg_4">
     <path class="st2" d="m206.73,222.41c-18.11,-7.94 -24.79,-19.62 -26.69,-30.37c13.35,-10.28 23.36,-27.1 29.08,-44.85c5.72,-7.47 9.53,-14.95 9.53,-21.49c0,-4.67 -1.43,-7.47 -4.77,-10.28c-0.95,-37.84 -28.13,-68.21 -61.97,-68.68c-0.48,0 -0.48,0 -0.95,0c0,0 0,0 -0.48,0c-33.85,0 -61.02,29.9 -62.45,67.28c-4.29,2.34 -6.67,6.07 -6.67,11.68c0,7.48 4.77,16.82 12.87,25.23c5.72,15.42 14.78,29.9 26.22,39.24c-1.91,10.75 -8.1,23.36 -27.17,31.77c-10.49,4.2 -29.08,8.41 -37.18,12.15c20.5,23.36 60.06,37.38 93.43,37.38l0.48,0c0,0 0,0 0,0c33.37,0 72.93,-14.02 93.91,-36.44c-8.1,-4.2 -26.69,-7.94 -37.18,-12.61z" id="svg_5"/>
    </g>
   </g>
   <g id="svg_6">
    <g id="svg_7">
     <path class="st3" d="m206.73,213.07c-18.11,-7.94 -24.79,-19.62 -26.69,-30.37c13.35,-10.28 23.36,-27.1 29.08,-44.85c5.72,-7.47 9.53,-14.95 9.53,-21.49c0,-4.67 -1.43,-7.47 -4.77,-10.28c-0.95,-37.84 -28.13,-68.21 -61.97,-68.68c-0.48,0 -0.48,0 -0.95,0c0,0 0,0 -0.48,0c-33.37,0.47 -60.54,30.37 -62.45,67.74c-4.29,2.34 -6.67,6.07 -6.67,11.68c0,7.48 4.77,16.82 12.87,25.23c5.72,15.42 14.78,29.9 26.22,39.24c-1.91,10.75 -8.1,23.36 -27.17,31.77c-10.49,4.2 -29.08,8.41 -37.18,12.15c20.5,22.89 60.06,36.91 93.43,36.91l0.48,0c0,0 0,0 0,0c33.37,0 72.93,-14.02 93.91,-36.44c-8.1,-4.2 -26.69,-7.94 -37.18,-12.61z" id="svg_8"/>
    </g>
   </g>
  </g>
  <g id="Layer_2"/>
 </g>
</svg>